# xmcd
#
# Track frame offsets: 
#        150
#        12022
#        24359
#        35867
#        49418
#        72312
#        86268
#        99493
#        113664
#        128572
#
# Disc length: 1870 seconds
#
# Revision: 0
# Processed by: cddbd v1.4PL0 Copyright (c) Steve Scherf et al.
# Submitted via: ExactAudioCopy v0.90b4
#
DISCID=77074c0a
DTITLE=Louis Jordan - The Essential Recordings
DYEAR=2001
DGENRE=Blues
TTITLE0=Choo Choo Ch'boogie
TTITLE1=Caldonia
TTITLE2=Let The Good Times Roll
TTITLE3=I Got The Walking' Blues
TTITLE4=Saturday Night Fish Fry
TTITLE5=Ain't Nobody Here But Us Chicken
TTITLE6=Beans And Cornbread
TTITLE7=Outskirts Of Town
TTITLE8=Helping Hand
TTITLE9=I'm A Good Thing
EXTD=
EXTT0=
EXTT1=
EXTT2=
EXTT3=
EXTT4=
EXTT5=
EXTT6=
EXTT7=
EXTT8=
EXTT9=
PLAYORDER=
